<svg id="Layer_35" enable-background="new 0 0 64 64" height="512" viewBox="0 0 64 64" width="512" xmlns="http://www.w3.org/2000/svg"><path d="m9 62h-7c0-2.12.63-4.15 1.75-5.86 1.11-1.7 2.71-3.1 4.66-3.95l6.7-2.92 1.89 4.73 1.33-1.33 1.67 3.33-2 6z" fill="#e6e9ed"/><path d="m25 54 1.41-4.94 7.18 3.13c1.71.74 3.14 1.91 4.22 3.33 1.39 1.83 2.19 4.09 2.19 6.48h-7-9l-2-6 1.65-3.31.02-.02z" fill="#e6e9ed"/><path d="m22 56 1.65-3.31.02-.02-2.67-2.67-2.67 2.67 1.67 3.33-2 6h3 3z" fill="#ff826e"/><path d="m26.41 49.06-1.41 4.94-1.33-1.33-2.67-2.67 3.3-2.65c.31.63.83 1.15 1.5 1.44z" fill="#ccd1d9"/><path d="m21 50-2.67 2.67-1.33 1.33-1.89-4.73 1.09-.48c.67-.29 1.19-.81 1.5-1.44z" fill="#ccd1d9"/><path d="m24 45v1.04c0 .46.11.91.3 1.31l-3.3 2.65-3.3-2.65c.19-.4.3-.85.3-1.31v-1.04l.12-.21c.88.54 1.85.95 2.88 1.21l2.88-1.21z" fill="#f5e0cd"/><path d="m29 31v4.75c0 1.68-.39 3.28-1.11 4.7-.31.64-.69 1.24-1.13 1.8-.79 1.01-1.76 1.88-2.88 2.54l-2.88 1.21c-1.03-.26-2-.67-2.88-1.21-1.73-1.03-3.12-2.54-4.01-4.34-.72-1.42-1.11-3.02-1.11-4.7v-3.75h.95c1.33 0 2.61-.45 3.65-1.28l1.8-1.44c1.04-.83 2.32-1.28 3.65-1.28 1.27 0 2.5.41 3.51 1.17z" fill="#f5e0cd"/><path d="m32.85 27.11c.1.61.15 1.25.15 1.89v4c0 3.4-2.12 6.3-5.11 7.45.72-1.42 1.11-3.02 1.11-4.7v-4.75l-2.44-1.83c-1.01-.76-2.24-1.17-3.51-1.17-1.33 0-2.61.45-3.65 1.28l-1.8 1.44c-1.04.83-2.32 1.28-3.65 1.28h-.95v3.75c0 1.68.39 3.28 1.11 4.7-2.99-1.15-5.11-4.05-5.11-7.45v-5.9c0-2.97 2.09-5.52 5-6.1 1.23-2.45 3.73-4 6.47-4h.53c3.82 0 7.22 1.78 9.42 4.56v.01c1.25 1.57 2.11 3.47 2.43 5.54z" fill="#b27946"/><path d="m46 2c-8.84 0-16 7.16-16 16 0 1.23.15 2.41.42 3.56v.01c1.25 1.57 2.11 3.47 2.43 5.54 1.83 2.63 4.42 4.67 7.46 5.83h11.38c6.03-2.3 10.31-8.11 10.31-14.94 0-8.84-7.16-16-16-16z" fill="#ffc729"/><circle cx="46" cy="18" fill="#fcd770" r="12"/><path d="m53 37v5h-4v-5c0-1.66-1.34-3-3-3-.83 0-1.58.34-2.12.88s-.88 1.29-.88 2.12v5h-4v-5c0-1.52.48-2.92 1.31-4.06.21-.32.46-.61.74-.89 1.27-1.27 3.01-2.05 4.95-2.05 2.35 0 4.44 1.16 5.69 2.94.83 1.14 1.31 2.54 1.31 4.06z" fill="#aab2bd"/><path d="m47 58h-2c-2.49 0-4.71-1.13-6.17-2.91-1.14-1.38-1.83-3.16-1.83-5.09v-6c0-1.1.9-2 2-2h4 6 4c1.1 0 2 .9 2 2v6c0 4.42-3.58 8-8 8z" fill="#fcd770"/><circle cx="46" cy="49" fill="#e6e9ed" r="3"/><path d="m46 13c1.103 0 2 .897 2 2h2c0-1.859-1.279-3.411-3-3.858v-2.142h-2v2h-3v4c0 2.206 1.794 4 4 4 1.103 0 2 .897 2 2v2h-2c-1.103 0-2-.897-2-2h-2c0 1.859 1.279 3.411 3 3.858v2.142h2v-2h3v-4c0-2.206-1.794-4-4-4-1.103 0-2-.897-2-2v-2z"/><path d="m53 17h2v2h-2z"/><path d="m37 17h2v2h-2z"/><path d="m46 45c-2.206 0-4 1.794-4 4 0 1.859 1.279 3.411 3 3.858v2.142h2v-2.142c1.721-.447 3-1.999 3-3.858 0-2.206-1.794-4-4-4zm0 6c-1.103 0-2-.897-2-2s.897-2 2-2 2 .897 2 2-.897 2-2 2z"/><path d="m63 18c0-9.374-7.626-17-17-17s-17 7.626-17 17c0 .267.034.54.048.81-2.216-1.754-5.009-2.81-8.048-2.81h-.528c-2.979 0-5.673 1.57-7.14 4.13-3.117.845-5.332 3.701-5.332 6.969v5.901c0 3.595 2.099 6.757 5.364 8.202.866 1.621 2.112 3.016 3.636 4.066v.771c0 .794-.471 1.514-1.198 1.832l-7.789 3.408c-4.26 1.863-7.013 6.072-7.013 10.721v1h40v-1c0-1.559-.316-3.065-.888-4.453 1.409.915 3.086 1.453 4.888 1.453h2c4.963 0 9-4.037 9-9v-6c0-1.302-.839-2.402-2-2.816v-4.184c0-1.292-.315-2.51-.862-3.592 5.943-2.763 9.862-8.81 9.862-15.408zm-53 15v-5.901c0-2.479 1.765-4.632 4.196-5.118l.479-.096.219-.438c1.063-2.126 3.2-3.447 5.577-3.447h.529c6.065 0 11 4.935 11 11v4c0 2.002-.847 3.826-2.253 5.12.16-.767.253-1.557.253-2.366v-5.254l-2.841-2.131c-1.178-.883-2.637-1.369-4.108-1.369-1.548 0-3.066.533-4.277 1.5l-1.796 1.438c-.858.685-1.933 1.062-3.029 1.062h-1.949v4.754c0 .809.093 1.599.253 2.366-1.406-1.294-2.253-3.118-2.253-5.12zm24 0v-2.983c1.405 1.402 3.041 2.552 4.861 3.393-.546 1.081-.861 2.298-.861 3.59v4.184c-1.161.414-2 1.514-2 2.816v6c0 .95.15 1.865.424 2.726-.742-.57-1.555-1.062-2.437-1.447l-7.789-3.408c-.727-.319-1.198-1.039-1.198-1.833v-.771c1.524-1.05 2.771-2.445 3.636-4.066 3.265-1.444 5.364-4.606 5.364-8.201zm12-2c3.309 0 6 2.691 6 6v4h-2v-4c0-2.206-1.794-4-4-4s-4 1.794-4 4v4h-2v-4c0-3.309 2.691-6 6-6zm2 10h-4v-4c0-1.103.897-2 2-2s2 .897 2 2zm-27.28 16h.559l1.333 4h-3.226zm.662-2h-.764l-1.068-2.136 1.45-1.45 1.45 1.45zm3.124-2.909-2.009-2.008 1.614-1.291c.314.329.686.605 1.105.814zm-10.506-16.337v-2.754c1.53-.012 3.029-.543 4.227-1.5l1.796-1.438c1.673-1.337 4.228-1.376 5.937-.094l2.04 1.532v4.254c0 4.312-2.866 8.063-7 9.212-4.134-1.149-7-4.901-7-9.212zm6.758 11.216.242.061.242-.062c.618-.154 1.212-.359 1.782-.605.018.221.053.438.106.649l-2.13 1.706-2.13-1.705c.053-.211.088-.428.106-.649.57.245 1.164.45 1.782.605zm-2.869 1.822 1.614 1.291-2.138 2.138-.971-2.427.208-.091c.497-.218.927-.534 1.287-.911zm-9.076 4.318 5.748-2.515 2.074 5.184 1.424-1.424.861 1.722-1.64 4.923h-7.06l.761-3.804-1.961-.392-.84 4.196h-5.128c.356-3.449 2.539-6.479 5.761-7.89zm25.007 7.89-.839-4.196-1.961.393.76 3.803h-7.06l-1.641-4.923.861-1.722 1.554 1.554 1.566-5.479 6.126 2.681c3.223 1.41 5.405 4.44 5.762 7.89h-5.128zm20.18-11c0 3.859-3.141 7-7 7h-2c-3.859 0-7-3.141-7-7v-6c0-.552.448-1 1-1h14c.552 0 1 .448 1 1zm-2.004-18.278c-.497-.565-1.071-1.058-1.708-1.464 5.065-1.778 8.712-6.594 8.712-12.258 0-7.168-5.832-13-13-13s-13 5.832-13 13c0 5.664 3.647 10.48 8.711 12.258-.637.407-1.211.9-1.709 1.465-2.503-1.092-4.641-2.821-6.222-5.045-.37-2.039-1.217-3.908-2.421-5.498-.232-1.075-.359-2.145-.359-3.18 0-8.271 6.729-15 15-15s15 6.729 15 15c0 5.931-3.593 11.351-9.004 13.722zm-5.996-2.722c-6.065 0-11-4.935-11-11s4.935-11 11-11 11 4.935 11 11-4.935 11-11 11z"/></svg>