<?xml version="1.0" encoding="iso-8859-1"?>
<!-- Generator: Adobe Illustrator 21.0.0, SVG Export Plug-In . SVG Version: 6.00 Build 0)  -->
<svg xmlns="http://www.w3.org/2000/svg" xmlns:xlink="http://www.w3.org/1999/xlink" version="1.1" id="Capa_1" x="0px" y="0px" viewBox="0 0 512.002 512.002" style="enable-background:new 0 0 512.002 512.002;" xml:space="preserve" width="512" height="512">
<g>
	<path style="fill:#FFCD00;" d="M317.501,372.501h-127.5c-3.854,0-7.56-1.483-10.35-4.143L10.794,208.072   c-3.165-3.018-4.856-7.266-4.63-11.633c0.226-4.367,2.346-8.418,5.806-11.093L246.827,3.132c5.413-4.184,12.97-4.176,18.373,0.021   L500.028,185.48c3.481,2.703,5.598,6.801,5.787,11.204c0.188,4.404-1.568,8.668-4.806,11.66L327.682,368.518   C324.91,371.078,321.275,372.501,317.501,372.501z"/>
	<path style="fill:#DB9D00;" d="M500.028,185.48L265.2,3.153c-2.637-2.048-5.786-3.09-8.949-3.143v372.492h61.25   c3.773,0,7.409-1.423,10.181-3.983l173.327-160.174c3.237-2.992,4.994-7.256,4.806-11.66   C505.625,192.281,503.509,188.183,500.028,185.48z"/>
	<path style="fill:#E8F6FC;" d="M404.001,360.746c-0.015,0-0.029,0-0.045,0l-296-0.878c-8.267-0.024-14.955-6.733-14.955-15V63.001   c0-8.284,6.716-15,15-15h296c8.284,0,15,6.716,15,15v282.745c0,3.986-1.587,7.808-4.409,10.622   C411.779,359.172,407.971,360.746,404.001,360.746z"/>
	<path style="fill:#CEE2E9;" d="M404.001,48.001h-147.75v312.307l147.705,0.438c0.016,0,0.03,0,0.045,0   c3.97,0,7.778-1.574,10.591-4.378c2.822-2.814,4.409-6.636,4.409-10.622V63.001C419.001,54.717,412.285,48.001,404.001,48.001z"/>
	<path style="fill:#FFDE46;" d="M20.999,512.002c-2.338,0-4.685-0.546-6.843-1.653c-5.007-2.567-8.155-7.721-8.155-13.347v-299.37   c0-5.903,3.463-11.258,8.847-13.68c5.385-2.423,11.687-1.46,16.104,2.456l186.5,165.369c3.412,3.025,5.263,7.438,5.029,11.991   s-2.525,8.754-6.228,11.414l-186.5,134.001C27.154,511.051,24.084,512.002,20.999,512.002z"/>
	<path style="fill:#D8C100;" d="M482.249,509.184l-186.5-134.001c-3.702-2.66-5.994-6.86-6.228-11.414s1.617-8.966,5.029-11.991   l186.5-165.369c4.417-3.916,10.72-4.879,16.104-2.456c5.384,2.422,8.847,7.776,8.847,13.68v299.37   c0,5.626-3.148,10.779-8.155,13.347c-2.158,1.107-4.505,1.653-6.843,1.653C487.919,512.002,484.849,511.051,482.249,509.184z"/>
	<path style="fill:#FFEF31;" d="M491.001,512h-470c-6.214,0-11.784-3.832-14.008-9.634c-2.223-5.804-0.637-12.376,3.986-16.527   l214.957-193.004c17.141-15.389,42.988-15.389,60.129,0l214.957,193.004c4.623,4.151,6.209,10.724,3.986,16.527   C502.785,508.168,497.215,512,491.001,512z"/>
	<path style="fill:#0095FF;" d="M344.001,164.501h-116c-8.284,0-15-6.716-15-15s6.716-15,15-15h116c8.284,0,15,6.716,15,15   S352.285,164.501,344.001,164.501z"/>
	<path style="fill-rule:evenodd;clip-rule:evenodd;fill:#F90053;" d="M168.001,164.501c8.262,0,15-6.738,15-15   c0-8.262-6.739-15-15-15c-8.262,0-15,6.738-15,15C153.001,157.763,159.74,164.501,168.001,164.501z"/>
	<path style="fill:#0095FF;" d="M344.001,224.5h-116c-8.284,0-15-6.716-15-15s6.716-15,15-15h116c8.284,0,15,6.716,15,15   S352.285,224.5,344.001,224.5z"/>
	<path style="fill-rule:evenodd;clip-rule:evenodd;fill:#F90053;" d="M168.001,224.501c8.262,0,15-6.738,15-15   c0-8.262-6.739-15-15-15c-8.262,0-15,6.738-15,15C153.001,217.762,159.74,224.501,168.001,224.501z"/>
	<path style="fill:#EAD000;" d="M501.023,485.839L286.066,292.835c-8.504-7.635-19.151-11.477-29.814-11.536V512h234.75   c6.214,0,11.784-3.832,14.008-9.634C507.232,496.563,505.646,489.991,501.023,485.839z"/>
	<path style="fill:#0063E5;" d="M344.001,134.501h-87.75v30h87.75c8.284,0,15-6.716,15-15S352.285,134.501,344.001,134.501z"/>
	<path style="fill:#0063E5;" d="M344.001,194.5h-87.75v30h87.75c8.284,0,15-6.716,15-15S352.285,194.5,344.001,194.5z"/>
</g>















</svg>
